<?xml version="1.0" encoding="utf-8"?>
<!-- Generator: Adobe Illustrator 16.0.0, SVG Export Plug-In . SVG Version: 6.00 Build 0)  -->
<!DOCTYPE svg PUBLIC "-//W3C//DTD SVG 1.1//EN" "http://www.w3.org/Graphics/SVG/1.1/DTD/svg11.dtd">
<svg version="1.1" id="Capa_1" xmlns="http://www.w3.org/2000/svg" xmlns:xlink="http://www.w3.org/1999/xlink" x="0px" y="0px"
	 width="512px" height="512px" viewBox="0 0 512 512" enable-background="new 0 0 512 512" xml:space="preserve">
<path fill="#FFFFFF" d="M256.583,252.508l56.186,0.01c6.911,0,12.52-5.608,12.52-12.519c0-6.92-5.608-12.519-12.52-12.519
	c-14.076,0-5.272,0.002-43.276-0.01c0.922-3.655,3.445-6.82,6.932-8.483c15.748-7.517,9.559-4.564,27.211-12.979
	c0.04-0.01,0.08-0.03,0.12-0.05c15.944-7.822,24.077-24.017,20.722-41.253c-3.495-17.917-18.268-30.847-36.756-32.159
	c-24.025-1.695-43.657,18.825-43.657,42.745c0,6.911,5.608,12.519,12.519,12.519c6.925,0,12.519-5.619,12.519-12.519
	c0-9.398,7.459-18.439,16.846-17.767c8.693,0.621,12.95,6.831,13.951,11.968c0.562,2.865,0.982,9.956-7.11,13.952
	c-25.485,12.16-18.681,8.913-27.142,12.95c-13.11,6.25-21.583,19.67-21.583,34.202v9.394
	C244.064,246.908,249.672,252.508,256.583,252.508L256.583,252.508z"/>
<path fill="#FFFFFF" d="M346.931,221.78h39.812v18.218c0,6.911,5.608,12.519,12.519,12.519c6.921,0,12.52-5.608,12.52-12.519V221.78
	h1.412c6.91,0,12.519-5.609,12.519-12.519c0-6.911-5.608-12.52-12.519-12.52h-1.412v-7.261c0-6.911-5.599-12.519-12.52-12.519
	c-6.938,0-12.519,5.631-12.519,12.519v7.261h-18.438c22.44-39.987,19.461-34.676,25.579-45.579
	c3.385-6.029,1.241-13.661-4.787-17.046c-6.029-3.385-13.661-1.242-17.047,4.788l-36.045,64.228
	C331.348,211.435,337.332,221.78,346.931,221.78L346.931,221.78z"/>
<path fill="#FFFFFF" d="M457.649,368.914c35.144-40.513,54.322-91.73,54.322-145.894C511.972,99.752,412.229,0,288.95,0
	c-54.163,0-105.381,19.179-145.893,54.323l-15.824-15.814c-12.94-12.97-34.022-13.781-48.865,1.082
	c-3.245,3.225-30.897,30.657-34.613,35.104c-92.411,103.228-24.157,223.011,73.212,320.369
	c98.21,98.23,217.723,165.362,320.689,72.941c6.57-5.849,36.556-35.995,38.169-37.948c0.02-0.03,0.05-0.06,0.069-0.09
	c10.938-13.471,9.926-32.891-2.354-45.159L457.649,368.914z M288.95,30.046c106.402,0,192.975,86.572,192.975,192.975
	c0,47.413-17.186,90.89-45.659,124.521l-41.213-41.213c-13.431-13.431-34.844-12.891-47.613-0.141
	c-2.153,2.153-48.203,48.193-48.203,48.193L157.661,212.795c11.888-11.858,38.449-38.438,48.043-48.043
	c13.17-13.15,13.22-34.542,0.01-47.773l-41.283-41.273C198.062,47.232,241.539,30.046,288.95,30.046z M99.802,60.643
	c1.963-1.953,5.118-1.953,7.081,0c21.243,21.252,63.547,63.557,77.579,77.588c1.502,1.512,1.402,3.866,0,5.268
	c0,0-11.317,11.317-15.614,15.624c-51.419-51.438-33.542-33.562-83.778-83.788C86.751,73.663,93.922,66.501,99.802,60.643z
	 M138.211,373.82C55.285,290.895-13.04,186.014,64.198,96.958c8.032,8.032,74.874,74.875,83.417,83.417
	c-1.733,1.712-2.153,2.143-13.551,13.521c-10.466,10.456-10.426,27.382,0,37.788l146.273,146.294
	c10.426,10.415,27.382,10.415,37.808-0.011c7.142-7.141,11.168-11.177,13.531-13.53c54.874,54.874,27.481,27.481,83.407,83.407
	C326.237,524.941,221.718,457.379,138.211,373.82z M452.761,410.777c-0.941,1.002-8.363,8.503-16.055,16.194
	c-60.332-60.331-23.706-23.706-83.778-83.777l15.765-15.765c1.191-1.182,3.615-1.361,5.117,0.141
	c59.19,59.19,78.49,78.479,78.49,78.479C453.582,407.332,453.752,409.306,452.761,410.777L452.761,410.777z"/>
</svg>
