<?xml version="1.0" encoding="utf-8"?>
<!-- Generator: Adobe Illustrator 16.0.0, SVG Export Plug-In . SVG Version: 6.00 Build 0)  -->
<!DOCTYPE svg PUBLIC "-//W3C//DTD SVG 1.1//EN" "http://www.w3.org/Graphics/SVG/1.1/DTD/svg11.dtd">
<svg version="1.1" id="Capa_1" xmlns="http://www.w3.org/2000/svg" xmlns:xlink="http://www.w3.org/1999/xlink" x="0px" y="0px"
	 width="100px" height="100px" viewBox="0 0 100 100" enable-background="new 0 0 100 100" xml:space="preserve">
<g>
	<path fill="#FFFFFF" d="M59.053,0.552c-10.473,0-20.037,3.953-27.285,10.443c1.607,2.556,2.521,5.531,2.607,8.601v0.009l0,0.009
		c0.037,1.383,0.119,2.767,0.238,4.149c5.498-7.555,14.402-12.479,24.44-12.479c16.66,0,30.215,13.555,30.215,30.215
		c0,16.485-13.271,29.92-29.691,30.202c1.5,1.253,3.047,2.446,4.643,3.567l0.007,0.006l0.008,0.006
		c2.171,1.531,3.94,3.539,5.181,5.837C86.992,76.518,100,60.5,100,41.5C100,18.921,81.631,0.552,59.053,0.552z"/>
	<path fill="#FFFFFF" d="M58.047,84.051c-4.678-3.734-7.596-6.221-11.773-10.09c-1.229-1.139-2.731-1.848-4.273-1.848
		c-1.18,0-2.346,0.376-3.305,1.163c-0.99,0.833-1.98,1.667-2.971,2.501c-8.049-9.566-14.026-20.713-17.54-32.71
		c1.242-0.363,2.485-0.728,3.727-1.091c2.738-0.838,4.025-3.761,3.624-6.69c-0.874-6.376-1.349-9.544-1.89-15.39
		c-0.277-2.996-2.271-5.599-5.129-5.754c-0.446-0.043-0.891-0.064-1.333-0.064c-10.629,0-19.883,12.319-16.46,27.391
		c4.26,18.665,13.481,35.862,26.671,49.739c5.402,5.672,12.021,8.24,17.999,8.24c6.306,0,11.899-2.855,14.608-7.939
		C61.453,89.041,60.398,85.928,58.047,84.051z"/>
	<path fill="#FFFFFF" d="M46.738,42.258c-2.831,2.626-4.683,4.691-5.661,6.312c-0.69,1.143-1.194,2.352-1.498,3.592
		c-0.143,0.584-0.011,1.19,0.36,1.663c0.371,0.473,0.929,0.744,1.53,0.744h13.508c1.655,0,3.001-1.347,3.001-3.002
		c0-1.655-1.346-3.001-3.001-3.001h-6.1c0.05-0.059,0.101-0.118,0.153-0.177c0.398-0.448,1.375-1.386,2.901-2.785
		c1.6-1.469,2.68-2.568,3.303-3.362c0.938-1.193,1.635-2.359,2.072-3.463c0.445-1.125,0.672-2.325,0.672-3.565
		c0-2.227-0.806-4.117-2.396-5.619c-1.579-1.49-3.754-2.245-6.464-2.245c-2.463,0-4.555,0.645-6.217,1.917
		c-1.002,0.768-1.775,1.831-2.295,3.162c-0.351,0.899-0.26,1.927,0.243,2.75c0.504,0.824,1.378,1.373,2.339,1.469
		c0.107,0.011,0.213,0.016,0.319,0.016c1.352,0,2.558-0.86,3-2.139c0.139-0.401,0.322-0.72,0.546-0.948
		c0.472-0.48,1.107-0.715,1.942-0.715c0.849,0,1.483,0.221,1.938,0.676c0.454,0.454,0.675,1.116,0.675,2.025
		c0,0.844-0.302,1.724-0.896,2.617C50.394,38.647,49.44,39.74,46.738,42.258z"/>
	<path fill="#FFFFFF" d="M73.78,27.351h-2.256c-0.644,0-1.243,0.317-1.606,0.848L59.483,43.474
		c-0.304,0.445-0.466,0.967-0.466,1.507v2.475c0,1.072,0.873,1.945,1.945,1.945h8.566v2.07c0,1.708,1.39,3.098,3.098,3.098
		c1.709,0,3.098-1.39,3.098-3.098V49.4h0.311c1.587,0,2.879-1.292,2.879-2.879s-1.292-2.879-2.879-2.879h-0.311V29.295
		C75.725,28.223,74.853,27.351,73.78,27.351z M69.529,43.643h-3.846l3.846-5.716V43.643z"/>
</g>
</svg>
