<?xml version="1.0" encoding="utf-8"?>
<!-- Generator: Adobe Illustrator 16.0.0, SVG Export Plug-In . SVG Version: 6.00 Build 0)  -->
<!DOCTYPE svg PUBLIC "-//W3C//DTD SVG 1.1//EN" "http://www.w3.org/Graphics/SVG/1.1/DTD/svg11.dtd">
<svg version="1.1" id="Capa_1" xmlns="http://www.w3.org/2000/svg" xmlns:xlink="http://www.w3.org/1999/xlink" x="0px" y="0px"
	 width="336px" height="315px" viewBox="244.5 0 336 315" enable-background="new 244.5 0 336 315" xml:space="preserve">
<g>
	<g>
		<path fill="#C0063B" d="M540.738,27.07h-29.326v-8.613C511.412,8.28,503.132,0,492.955,0c-10.178,0-18.457,8.28-18.457,18.457
			v8.613H371.139v-8.613C371.139,8.28,362.858,0,352.682,0c-10.177,0-18.457,8.28-18.457,18.457v8.841
			c-0.523-0.145-1.071-0.228-1.641-0.228h-24.513c-16.962,0-30.762,13.8-30.762,30.762v104.795c0,3.398,2.755,6.152,6.152,6.152
			s6.152-2.754,6.152-6.152V90.439h221.798c3.396,0,6.152-2.754,6.152-6.152s-2.756-6.152-6.152-6.152H289.614V57.832
			c0-10.177,8.28-18.457,18.457-18.457h24.513c0.569,0,1.118-0.083,1.641-0.228v7.918c0,10.177,8.28,18.457,18.457,18.457
			c10.177,0,18.457-8.28,18.457-18.457v-7.69h103.359v7.69c0,10.177,8.279,18.457,18.457,18.457c10.177,0,18.457-8.28,18.457-18.457
			v-7.69h29.326c10.178,0,18.457,8.28,18.457,18.457v233.785c0,6.107-4.969,11.078-11.078,11.078
			c-6.108,0-11.078-4.971-11.078-11.078v-15.915c0-3.397-2.755-6.152-6.152-6.152h-71.563c-3.397,0-6.152,2.755-6.152,6.152
			s2.755,6.151,6.152,6.151h65.412v9.764c0,4.006,1.015,7.779,2.797,11.078H279.879c-6.106,0-11.074-4.969-11.074-11.074v-9.768
			H406.51c3.397,0,6.152-2.754,6.152-6.151s-2.755-6.152-6.152-6.152h-61.472c10.751-9.259,17.578-22.954,17.578-38.222
			c0-27.818-22.632-50.449-50.449-50.449c-27.818,0-50.449,22.631-50.449,50.449c0,15.268,6.826,28.963,17.577,38.222h-16.642
			c-3.397,0-6.152,2.755-6.152,6.152v15.919c0,12.891,10.488,23.379,23.379,23.379h268.238c12.893,0,23.383-10.489,23.383-23.383
			V57.832C571.5,40.87,557.7,27.07,540.738,27.07z M358.834,47.065c0,3.393-2.76,6.152-6.152,6.152c-3.393,0-6.152-2.76-6.152-6.152
			V18.457c0-3.393,2.76-6.152,6.152-6.152s6.152,2.76,6.152,6.152V47.065z M499.107,47.065c0,3.393-2.761,6.152-6.152,6.152
			c-3.393,0-6.152-2.76-6.152-6.152V18.457c0-3.393,2.76-6.152,6.152-6.152c3.392,0,6.152,2.76,6.152,6.152V47.065z
			 M274.021,231.328c0-21.033,17.111-38.145,38.145-38.145c21.033,0,38.145,17.11,38.145,38.145
			c0,21.033-17.112,38.145-38.145,38.145S274.021,252.361,274.021,231.328z"/>
	</g>
</g>
<g>
	<g>
		<path fill="#C0063B" d="M544.62,79.938c-1.145-1.145-2.731-1.803-4.351-1.803c-1.618,0-3.204,0.658-4.35,1.803
			c-1.145,1.144-1.803,2.731-1.803,4.35s0.658,3.206,1.803,4.35c1.146,1.145,2.731,1.803,4.35,1.803
			c1.619,0,3.206-0.658,4.351-1.803c1.144-1.144,1.803-2.731,1.803-4.35S545.765,81.082,544.62,79.938z"/>
	</g>
</g>
<g>
	<g>
		<path fill="#C0063B" d="M440.239,271.35c-1.145-1.145-2.731-1.797-4.351-1.797s-3.205,0.652-4.35,1.797
			c-1.145,1.15-1.803,2.73-1.803,4.351c0,1.624,0.657,3.204,1.803,4.354c1.145,1.146,2.73,1.797,4.35,1.797s3.206-0.651,4.351-1.797
			c1.145-1.149,1.803-2.738,1.803-4.354C442.042,274.08,441.384,272.5,440.239,271.35z"/>
	</g>
</g>
<g>
	<g>
		<path fill="#C0063B" d="M395.694,187.031c-12.891,0-23.379,10.488-23.379,23.379s10.488,23.379,23.379,23.379
			c12.891,0,23.378-10.488,23.378-23.379S408.585,187.031,395.694,187.031z M395.694,221.484c-6.106,0-11.074-4.969-11.074-11.074
			s4.968-11.074,11.074-11.074s11.074,4.969,11.074,11.074S401.8,221.484,395.694,221.484z"/>
	</g>
</g>
<g>
	<g>
		<path fill="#C0063B" d="M453.115,187.031c-12.892,0-23.379,10.488-23.379,23.379s10.487,23.379,23.379,23.379
			s23.379-10.488,23.379-23.379S466.007,187.031,453.115,187.031z M453.115,221.484c-6.106,0-11.074-4.969-11.074-11.074
			s4.968-11.074,11.074-11.074c6.105,0,11.074,4.969,11.074,11.074S459.222,221.484,453.115,221.484z"/>
	</g>
</g>
<g>
	<g>
		<path fill="#C0063B" d="M510.538,187.031c-12.892,0-23.379,10.488-23.379,23.379s10.487,23.379,23.379,23.379
			c12.891,0,23.379-10.488,23.379-23.379S523.429,187.031,510.538,187.031z M510.538,221.484c-6.106,0-11.074-4.969-11.074-11.074
			s4.968-11.074,11.074-11.074c6.104,0,11.074,4.969,11.074,11.074S516.644,221.484,510.538,221.484z"/>
	</g>
</g>
<g>
	<g>
		<path fill="#C0063B" d="M338.272,123.047c-12.891,0-23.379,10.488-23.379,23.379s10.488,23.379,23.379,23.379
			s23.379-10.488,23.379-23.379S351.163,123.047,338.272,123.047z M338.272,157.5c-6.106,0-11.074-4.968-11.074-11.074
			c0-6.106,4.968-11.074,11.074-11.074s11.074,4.968,11.074,11.074C349.346,152.532,344.378,157.5,338.272,157.5z"/>
	</g>
</g>
<g>
	<g>
		<path fill="#C0063B" d="M453.115,123.047c-12.892,0-23.379,10.488-23.379,23.379s10.487,23.379,23.379,23.379
			s23.379-10.488,23.379-23.379S466.007,123.047,453.115,123.047z M453.115,157.5c-6.106,0-11.074-4.968-11.074-11.074
			c0-6.106,4.968-11.074,11.074-11.074c6.105,0,11.074,4.968,11.074,11.074C464.189,152.532,459.222,157.5,453.115,157.5z"/>
	</g>
</g>
<g>
	<g>
		<path fill="#C0063B" d="M510.538,123.047c-12.892,0-23.379,10.488-23.379,23.379s10.487,23.379,23.379,23.379
			c12.891,0,23.379-10.488,23.379-23.379S523.429,123.047,510.538,123.047z M510.538,157.5c-6.106,0-11.074-4.968-11.074-11.074
			c0-6.106,4.968-11.074,11.074-11.074c6.104,0,11.074,4.968,11.074,11.074C521.612,152.532,516.644,157.5,510.538,157.5z"/>
	</g>
</g>
<g>
	<g>
		<path fill="#C0063B" d="M395.694,123.047c-12.891,0-23.379,10.488-23.379,23.379s10.488,23.379,23.379,23.379
			c12.891,0,23.378-10.488,23.378-23.379S408.585,123.047,395.694,123.047z M395.694,157.5c-6.106,0-11.074-4.968-11.074-11.074
			c0-6.106,4.968-11.074,11.074-11.074s11.074,4.968,11.074,11.074C406.768,152.532,401.8,157.5,395.694,157.5z"/>
	</g>
</g>
<g>
	<g>
		<path fill="#C0063B" d="M334.083,216.334c-2.403-2.402-6.297-2.402-8.701,0l-20.036,20.037l-6.847-6.848
			c-2.403-2.402-6.297-2.402-8.701,0c-2.402,2.401-2.402,6.299,0,8.701l11.198,11.196c1.154,1.153,2.719,1.802,4.351,1.802
			c1.631,0,3.196-0.647,4.35-1.802l24.387-24.387C336.486,222.633,336.486,218.736,334.083,216.334z"/>
	</g>
</g>
</svg>
