<?xml version="1.0" encoding="utf-8"?>
<!-- Generator: Adobe Illustrator 16.0.0, SVG Export Plug-In . SVG Version: 6.00 Build 0)  -->
<!DOCTYPE svg PUBLIC "-//W3C//DTD SVG 1.1//EN" "http://www.w3.org/Graphics/SVG/1.1/DTD/svg11.dtd">
<svg version="1.1" id="Layer_1" xmlns="http://www.w3.org/2000/svg" xmlns:xlink="http://www.w3.org/1999/xlink" x="0px" y="0px"
	 width="512px" height="512px" viewBox="0 0 512 512" enable-background="new 0 0 512 512" xml:space="preserve">
<path fill="#C0063B" d="M479.73,0H431.59c-4.188,0-7.586,3.398-7.586,7.586c0,4.191,3.398,7.59,7.586,7.59h48.141
	c9.426,0,17.094,7.668,17.094,17.094v115.805c0,9.426-7.668,17.094-17.094,17.094H302.313c-2.012,0-3.941,0.801-5.367,2.223
	l-43.699,43.699v-38.332c0-4.191-3.395-7.59-7.586-7.59h-14.449c-9.426,0-17.094-7.668-17.094-17.094V32.27
	c0-9.426,7.668-17.094,17.094-17.094h175.086c4.191,0,7.59-3.398,7.59-7.59c0-4.188-3.398-7.586-7.59-7.586H231.211
	c-17.793,0-32.27,14.477-32.27,32.27v115.805c0,17.793,14.477,32.27,32.27,32.27h6.863v49.063c0,3.07,1.848,5.836,4.684,7.012
	c0.938,0.387,1.922,0.578,2.902,0.578c1.973,0,3.914-0.773,5.367-2.223l54.426-54.43H479.73c17.793,0,32.27-14.477,32.27-32.27
	V32.27C512,14.477,497.523,0,479.73,0z"/>
<path fill="#C0063B" d="M274.285,97.325c8.996-6.156,20.195-13.824,20.195-26.934c0-6.219-2.52-11.52-7.281-15.328
	c-4.211-3.371-10.016-5.305-15.926-5.305c-10.914,0-22.512,6.711-22.512,19.145c0,5.484,2.309,8.152,7.059,8.152
	c5.359,0,8.25-2.977,8.25-5.773c0-4.641,2.66-7.305,7.301-7.305c5.465,0,7.402,3.723,7.402,6.906
	c0,5.895-6.949,10.996-14.309,16.398c-8.305,6.094-16.891,12.398-16.891,20.648v9.609c0,2.98,4.063,4.883,6.859,4.883h35.266
	c2.547,0,4.781-3.254,4.781-6.965c0-3.602-2.234-6.762-4.781-6.762h-25.828v-0.766C263.871,104.454,268.699,101.153,274.285,97.325z
	"/>
<path fill="#C0063B" d="M336.453,122.418c5.395,0,7.852-2.527,7.852-4.879v-10.375h4.133c2.465,0,4.883-3.594,4.883-7.258
	c0-4.988-2.531-7.258-4.883-7.258h-4.133V85.84c0-2.203-2.055-4.781-7.852-4.781s-7.852,2.574-7.852,4.781v6.809h-8.188
	l17.441-34.988c0.266-0.613,0.508-1.27,0.508-1.934c0-1.617-1.035-3.168-2.918-4.367c-1.535-0.973-3.469-1.602-4.934-1.602
	c-2.883,0-5.207,1.43-6.551,4.031l-22.883,44.867c-0.703,1.289-0.809,2.453-0.809,3.031c0,3.277,2.125,5.477,5.281,5.477h23.051
	v10.371C328.602,119.891,331.059,122.418,336.453,122.418z"/>
<path fill="#C0063B" d="M395.672,48.247l-34.766,71.414c-0.324,0.648-0.512,1.352-0.512,1.938c0,2.598,2.281,5.379,5.676,5.379
	c1.992,0,3.871-1.051,4.57-2.547l34.867-71.418c0.34-0.68,0.41-1.43,0.41-1.938c0-3.219-3.086-5.379-5.973-5.379
	C397.992,45.696,396.434,46.625,395.672,48.247z"/>
<path fill="#C0063B" d="M422.234,74.875c4.313,0,7.953-2.234,7.953-4.883v-6.512h17.477v6.773l-24.352,42.172
	c-0.488,0.883-0.707,1.695-0.707,2.637c0,4.684,5.234,7.949,9.934,7.949c2.234,0,3.699-0.699,4.469-2.148l23.18-44.375
	c0.746-1.398,3.184-6.223,3.184-9.469V54.637c0-2.129-3.328-4.879-6.863-4.879h-35.164c-3.461,0-6.863,2.418-6.863,4.879v15.355
	C414.48,72.684,417.961,74.875,422.234,74.875z"/>
<path fill="#C0063B" d="M313.77,263.434c-3.945-3.945-9.195-6.117-14.777-6.117s-10.832,2.172-14.777,6.117l-46.379,46.38
	c-18.469-9.653-34.535-18.856-52.488-33.997c-3.203-2.699-7.988-2.293-10.691,0.91c-2.699,3.203-2.293,7.988,0.91,10.691
	c20.734,17.48,38.781,27.349,60.219,38.431c2.934,1.516,6.512,0.961,8.848-1.375l24.953-24.95l82.262,82.263
	c-26.57,22.809-64.199,30.75-106.922,22.352c-48.047-9.449-98.891-39.031-143.164-83.305
	c-44.273-44.274-73.859-95.122-83.309-143.168c-8.398-42.727-0.457-80.355,22.348-106.922l82.273,82.27l-24.961,24.957
	c-2.336,2.336-2.891,5.918-1.371,8.852c15.109,29.215,27.301,50.652,57.84,81.195c2.965,2.961,7.77,2.961,10.73,0
	c2.965-2.965,2.965-7.77,0-10.73c-27.379-27.378-38.852-46.339-52.535-72.515l46.383-46.387c3.949-3.945,6.121-9.195,6.121-14.777
	s-2.172-10.832-6.121-14.777L84.777,34.446c-3.945-3.949-9.195-6.125-14.777-6.125s-10.832,2.176-14.777,6.121L35.227,54.438
	C4.797,84.868-6.449,129.672,3.563,180.59c10.023,50.973,41.086,104.589,87.469,150.973c46.379,46.379,99.996,77.441,150.969,87.461
	c12.133,2.387,23.914,3.566,35.242,3.563c36.207,0,67.73-12.047,90.91-35.227l19.992-19.992c3.949-3.949,6.121-9.195,6.121-14.777
	s-2.172-10.832-6.121-14.777L313.77,263.434z M65.953,45.172c1.078-1.078,2.516-1.676,4.047-1.676s2.969,0.594,4.047,1.676
	l74.387,74.387c1.078,1.078,1.676,2.516,1.676,4.047s-0.598,2.969-1.676,4.047l-14.629,14.629l-82.48-82.48L65.953,45.172z
	 M377.418,356.638l-14.633,14.629l-82.469-82.474l14.629-14.629c1.078-1.082,2.52-1.676,4.047-1.676s2.965,0.594,4.047,1.676
	l74.379,74.376C379.648,350.774,379.648,354.407,377.418,356.638z"/>
</svg>
