<?xml version="1.0" encoding="utf-8"?>
<!-- Generator: Adobe Illustrator 16.0.0, SVG Export Plug-In . SVG Version: 6.00 Build 0)  -->
<!DOCTYPE svg PUBLIC "-//W3C//DTD SVG 1.1//EN" "http://www.w3.org/Graphics/SVG/1.1/DTD/svg11.dtd">
<svg version="1.1" id="Capa_1" xmlns="http://www.w3.org/2000/svg" xmlns:xlink="http://www.w3.org/1999/xlink" x="0px" y="0px"
	 width="315px" height="241.5px" viewBox="256.5 24.75 315 241.5" enable-background="new 256.5 24.75 315 241.5"
	 xml:space="preserve">
<g>
	<g>
		<g>
			<path fill="#C0063B" d="M555.75,24.75h-283.5c-8.698,0-15.75,7.051-15.75,15.75v210c0,8.697,7.051,15.75,15.75,15.75h283.5
				c8.698,0,15.75-7.052,15.75-15.75v-210C571.5,31.802,564.449,24.75,555.75,24.75z M561,250.5c0,2.9-2.351,5.25-5.25,5.25h-283.5
				c-2.899,0-5.25-2.35-5.25-5.25v-210c0-2.9,2.351-5.25,5.25-5.25h283.5c2.899,0,5.25,2.35,5.25,5.25V250.5L561,250.5z"/>
			<path fill="#C0063B" d="M545.707,45.77c-1.388-0.122-2.768,0.313-3.832,1.209L420.757,148.723c-3.906,3.284-9.606,3.284-13.514,0
				L286.126,46.978c-1.437-1.206-3.408-1.554-5.17-0.913c-1.763,0.641-3.05,2.174-3.376,4.021c-0.326,1.848,0.358,3.729,1.795,4.934
				l121.118,101.74c7.806,6.572,19.21,6.572,27.017,0L548.626,55.022c1.066-0.896,1.733-2.177,1.854-3.565
				c0.12-1.387-0.313-2.766-1.209-3.832C548.377,46.558,547.094,45.891,545.707,45.77z"/>
			<path fill="#C0063B" d="M357.475,156.039c-1.858-0.414-3.795,0.209-5.063,1.631l-73.5,78.75c-1.33,1.361-1.818,3.338-1.276,5.162
				c0.542,1.826,2.031,3.214,3.889,3.629c1.859,0.414,3.795-0.209,5.063-1.631l73.5-78.75c1.331-1.362,1.819-3.338,1.276-5.163
				C360.821,157.842,359.333,156.453,357.475,156.039z"/>
			<path fill="#C0063B" d="M475.588,157.67c-1.267-1.422-3.204-2.045-5.063-1.631c-1.859,0.414-3.348,1.803-3.89,3.628
				c-0.543,1.825-0.055,3.801,1.275,5.163l73.5,78.75c1.994,2.041,5.252,2.117,7.338,0.171c2.087-1.946,2.237-5.202,0.338-7.332
				L475.588,157.67z"/>
		</g>
	</g>
</g>
</svg>
