<?xml version="1.0" encoding="utf-8"?>
<!-- Generator: Adobe Illustrator 16.0.0, SVG Export Plug-In . SVG Version: 6.00 Build 0)  -->
<!DOCTYPE svg PUBLIC "-//W3C//DTD SVG 1.1//EN" "http://www.w3.org/Graphics/SVG/1.1/DTD/svg11.dtd">
<svg version="1.1" id="Capa_1" xmlns="http://www.w3.org/2000/svg" xmlns:xlink="http://www.w3.org/1999/xlink" x="0px" y="0px"
	 width="326px" height="315px" viewBox="0 0 326 315" enable-background="new 0 0 326 315" xml:space="preserve">
<g>
	<path fill="#FCFCFC" d="M163,136.5c20.265,0,36.75-16.49,36.75-36.75S183.266,63,163,63c-20.265,0-36.75,16.49-36.75,36.75
		S142.736,136.5,163,136.5z M163,73.5c14.474,0,26.25,11.776,26.25,26.25S177.475,126,163,126c-14.475,0-26.25-11.776-26.25-26.25
		S148.526,73.5,163,73.5z"/>
	<path fill="#FCFCFC" d="M162.071,287.475l80.541-116.324c30.209-40.271,25.84-106.468-9.352-141.654
		C214.246,10.474,188.961,0,162.071,0c-26.891,0-52.174,10.474-71.189,29.489c-35.19,35.186-39.559,101.383-9.471,141.497
		L162.071,287.475z M98.304,36.913C115.34,19.882,137.985,10.5,162.071,10.5c24.087,0,46.728,9.382,63.767,26.413
		c31.762,31.757,35.674,91.544,8.258,128.095l-72.025,104.018L89.93,164.85C62.63,128.457,66.547,68.67,98.304,36.913z"/>
	<path fill="#FCFCFC" d="M226.615,225.787c-2.891-0.352-5.492,1.717-5.828,4.6c-0.336,2.881,1.723,5.49,4.6,5.826
		c55.209,6.5,84.613,24.014,84.613,34.162c0,14.248-55.922,34.125-147,34.125c-91.077,0-147-19.877-147-34.125
		c0-10.148,29.404-27.662,84.614-34.162c2.877-0.336,4.935-2.949,4.599-5.826c-0.341-2.883-2.945-4.963-5.828-4.6
		C44.108,232.297,5.5,250.63,5.5,270.375C5.5,292.551,59.601,315,163,315c103.398,0,157.5-22.449,157.5-44.625
		C320.5,250.63,281.893,232.297,226.615,225.787z"/>
</g>
</svg>
