<?xml version="1.0" encoding="utf-8"?>
<!-- Generator: Adobe Illustrator 16.0.0, SVG Export Plug-In . SVG Version: 6.00 Build 0)  -->
<!DOCTYPE svg PUBLIC "-//W3C//DTD SVG 1.1//EN" "http://www.w3.org/Graphics/SVG/1.1/DTD/svg11.dtd">
<svg version="1.1" id="Layer_1" xmlns="http://www.w3.org/2000/svg" xmlns:xlink="http://www.w3.org/1999/xlink" x="0px" y="0px"
	 width="512px" height="512px" viewBox="0 0 512 512" enable-background="new 0 0 512 512" xml:space="preserve">
<title>value customers users viewer</title>
<path fill="#FFFFFF" d="M365.268,281.787l-1.447,0.781c-5.845-7.095-15.974-9.844-23.689-5.933
	c-0.028,0.013-0.056,0.027-0.082,0.042l-3.416,1.839c-8.348-7.068-20.232-8.142-29.712-2.685l-18.397,10.006h-24.48
	c-5.3-0.007-10.532-1.206-15.307-3.508l-3.368-1.629c-19.55-9.512-42.785-7.242-60.125,5.872c-0.08,0.062-0.158,0.123-0.232,0.191
	l-8.131,7.238c-3.073,2.729-6.705,4.754-10.642,5.932l-4.618-15.158c-0.47-1.54-1.891-2.593-3.501-2.593h-39.322
	c-2.021,0-3.661,1.639-3.661,3.66c0,0.148,0.009,0.296,0.027,0.443l13.107,107.474c0.224,1.837,1.783,3.217,3.633,3.217h58.98
	c2.021,0,3.661-1.639,3.661-3.66c0-0.361-0.054-0.722-0.16-1.067l-7.748-25.425l24.131-15.253c3.229-1.786,7.017-2.276,10.594-1.37
	c0.076,0.019,0.152,0.036,0.229,0.049l49.087,9.04c13.34,2.387,27.094,0.444,39.251-5.543c0.155-0.076,0.305-0.164,0.448-0.263
	l84.902-58.295c1.597-1.096,2.063-3.246,1.064-4.905C389.927,279.596,376.232,275.852,365.268,281.787z M343.478,283.146
	c4.463-2.234,10.081-0.403,13.67,3.021l-32.196,17.37l-1.891,0.996c-1.02-2.896-2.51-5.602-4.41-8.012L343.478,283.146z
	 M310.464,282.24c0.028-0.017,0.061-0.032,0.087-0.05c5.872-3.395,13.127-3.325,18.936,0.179l-16.37,8.813
	c-3.12-2.276-6.682-3.879-10.455-4.705L310.464,282.24z M135.142,389.657l-12.211-100.153h32.475l30.535,100.153H135.142z
	 M306.445,347.298c-10.689,5.204-22.754,6.88-34.457,4.788l-48.966-9.017c-5.386-1.33-11.076-0.56-15.914,2.155
	c-0.057,0.032-0.114,0.066-0.169,0.102l-22.521,14.237l-16.045-52.62c4.948-1.492,9.511-4.043,13.372-7.479l8.016-7.138
	c15.142-11.384,35.383-13.331,52.417-5.043l3.367,1.629c5.77,2.781,12.091,4.229,18.495,4.238h32.655
	c9.898,0.014,18.395,7.049,20.255,16.771l-23.668-1.069c-8.604-0.388-17.228,0.011-25.759,1.19c-1.999,0.296-3.38,2.158-3.083,4.158
	c0.294,1.972,2.11,3.347,4.088,3.092c8.089-1.117,16.264-1.495,24.422-1.127l27.854,1.26c0.055,0,0.111,0.004,0.166,0.004
	c2.021,0,3.66-1.639,3.66-3.66c0-0.593-0.024-1.18-0.062-1.764l3.82-2.014l40.356-21.766c6.374-3.45,14.271-2.185,19.245,3.086
	L306.445,347.298z"/>
<path fill="#FFFFFF" d="M146.779,374.513c0,6.365,5.16,11.525,11.524,11.525c6.365,0,11.524-5.16,11.524-11.525
	c0-6.364-5.159-11.524-11.524-11.524C151.942,362.996,146.786,368.151,146.779,374.513z M158.304,370.31
	c2.322,0,4.204,1.882,4.204,4.203c0,2.322-1.882,4.204-4.204,4.204s-4.204-1.882-4.204-4.204
	C154.104,372.193,155.984,370.314,158.304,370.31L158.304,370.31z"/>
<path fill="#FFFFFF" d="M283.835,154.953V142.89c-0.072-15.346-12.569-27.728-27.916-27.656
	c-15.244,0.071-27.584,12.412-27.655,27.656v12.063c0.071,15.345,12.569,27.728,27.915,27.656
	C271.423,182.537,283.764,170.197,283.835,154.953z M235.584,154.953V142.89c0.062-11.302,9.273-20.415,20.576-20.353
	c11.216,0.061,20.292,9.138,20.354,20.353v12.063c-0.062,11.302-9.273,20.415-20.576,20.353
	C244.722,175.245,235.646,166.168,235.584,154.953z"/>
<path fill="#FFFFFF" d="M211.262,258.131h89.575c2.021,0,3.66-1.639,3.66-3.661l0,0v-8.402h61.32c2.021,0,3.66-1.639,3.66-3.661
	v-23.759c-0.008-14.469-11.25-26.445-25.689-27.366c-1.952-0.144-2.956,1.093-3.77,2.085c-5.877,7.18-16.46,8.236-23.64,2.36
	c-1.075-0.88-2.037-1.89-2.864-3.007c-0.709-0.96-1.842-1.514-3.035-1.485c-4.755,0.107-9.398,1.462-13.466,3.929
	c-5.424-6.308-13.171-10.15-21.475-10.652c-1.892-0.077-2.848,1.072-3.774,2.197c-6.894,8.425-19.312,9.666-27.737,2.772
	c-1.263-1.034-2.393-2.22-3.363-3.532c-0.708-0.961-1.842-1.516-3.035-1.483c-8.028,0.186-15.662,3.515-21.259,9.273
	c-0.462,0.473-0.901,0.963-1.329,1.46c-3.78-2.301-8.064-3.646-12.481-3.918c-1.945-0.143-2.956,1.093-3.77,2.085
	c-5.876,7.179-16.459,8.236-23.639,2.36c-1.076-0.88-2.038-1.891-2.864-3.008c-0.71-0.959-1.842-1.512-3.035-1.484
	c-14.869,0.379-26.727,12.54-26.729,27.414v23.759c0,2.022,1.639,3.661,3.661,3.661h61.417v8.402
	C207.602,256.492,209.24,258.131,211.262,258.131z M308.917,198.672c8.807,9.997,24.051,10.961,34.048,2.153
	c0.73-0.644,1.421-1.331,2.068-2.059c9.838,1.484,17.114,9.933,17.123,19.881v20.099h-57.659v-23.483
	c0.004-4.875-1.155-9.68-3.383-14.016C303.506,199.853,306.164,198.976,308.917,198.672z M236.051,191.897
	c9.761,11.3,26.834,12.548,38.134,2.787c0.963-0.832,1.866-1.731,2.702-2.69c11.622,1.607,20.281,11.537,20.292,23.27v35.545
	h-82.256v-35.545C214.998,203.235,224.09,193.179,236.051,191.897z M149.846,238.747v-20.099
	c0.064-10.205,7.714-18.767,17.847-19.973c8.809,9.994,24.051,10.956,34.046,2.148c0.729-0.644,1.419-1.33,2.066-2.056
	c2.521,0.377,4.946,1.232,7.144,2.521c-2.207,4.328-3.354,9.118-3.347,13.976v23.483H149.846z"/>
<circle fill="none" stroke="#FFFFFF" stroke-width="5" stroke-miterlimit="10" cx="257" cy="258" r="207.5"/>
<path fill="#FFFFFF" d="M351.391,165.857v-10.559c0-13.684-11.093-24.777-24.776-24.777c-13.685,0-24.777,11.093-24.777,24.777
	v10.559c0,13.684,11.093,24.777,24.777,24.777C340.298,190.634,351.391,179.541,351.391,165.857z M309.158,165.857v-10.559
	c-0.002-9.641,7.812-17.457,17.452-17.459c9.641-0.001,17.457,7.812,17.459,17.453c0,0.002,0,0.004,0,0.006v10.559
	c0.003,9.641-7.812,17.457-17.452,17.459s-17.457-7.812-17.459-17.453C309.158,165.861,309.158,165.859,309.158,165.857z"/>
<path fill="#FFFFFF" d="M210.165,165.857v-10.559c0-13.684-11.093-24.777-24.777-24.777s-24.777,11.093-24.777,24.777v10.559
	c0,13.684,11.093,24.777,24.777,24.777S210.165,179.541,210.165,165.857z M167.932,165.857v-10.559
	c-0.002-9.641,7.812-17.457,17.453-17.459c9.641-0.001,17.458,7.812,17.459,17.453c0,0.002,0,0.004,0,0.006v10.559
	c0.001,9.641-7.812,17.457-17.453,17.459c-9.64,0.002-17.457-7.812-17.459-17.453C167.932,165.861,167.932,165.859,167.932,165.857z
	"/>
</svg>
