<?xml version="1.0" standalone="no"?>
<!DOCTYPE svg PUBLIC "-//W3C//DTD SVG 20010904//EN"
 "http://www.w3.org/TR/2001/REC-SVG-20010904/DTD/svg10.dtd">
<svg version="1.0" xmlns="http://www.w3.org/2000/svg"
 width="299.000000pt" height="299.000000pt" viewBox="0 0 299.000000 299.000000"
 preserveAspectRatio="xMidYMid meet">
<metadata>
Created by potrace 1.14, written by Peter Selinger 2001-2017
</metadata>
<g transform="translate(0.000000,299.000000) scale(0.100000,-0.100000)"
fill="#000000" stroke="none">
<path d="M280 2273 l0 -593 595 0 595 0 0 593 0 592 -595 0 -595 0 0 -592z
m360 93 c64 -126 118 -222 123 -217 5 5 54 98 110 208 129 252 116 233 160
235 20 1 39 -1 42 -3 4 -5 6 -196 5 -490 l0 -146 -27 3 c-16 1 -31 2 -35 3 -5
1 -8 117 -8 258 l0 258 -46 -90 c-25 -50 -77 -152 -116 -227 -89 -177 -94
-178 -164 -35 -90 181 -174 347 -177 347 -1 0 -2 -115 -2 -255 1 -140 -3 -256
-7 -256 -10 -2 -34 -2 -50 0 -10 1 -13 68 -11 304 0 166 1 307 2 314 1 10 64
23 81 16 3 -1 57 -103 120 -227z"/>
<path d="M1517 2533 c-2 -5 -4 -271 -3 -593 l1 -585 593 0 592 0 1 40 c0 22 1
288 2 590 l0 550 -591 3 c-325 1 -593 -1 -595 -5z m862 -365 c100 -28 151
-102 147 -214 -3 -90 -33 -141 -104 -178 -32 -17 -32 -17 -15 -44 24 -36 86
-126 93 -132 7 -7 30 -49 30 -55 0 -3 -17 -5 -37 -5 -37 0 -40 3 -104 103
l-66 102 -104 0 -104 0 -5 -100 -5 -100 -32 -3 c-18 -2 -33 0 -34 5 -3 33 -3
625 0 629 8 8 307 0 340 -8z"/>
<path d="M2138 2112 l-28 -3 0 -147 0 -148 98 2 c157 1 195 13 235 74 11 17
15 43 13 83 -3 62 -26 99 -76 120 -26 11 -196 24 -242 19z"/>
<path d="M284 1631 c-2 -2 -4 -269 -4 -593 0 -463 3 -588 13 -589 16 -1 1136
0 1160 0 16 1 17 34 15 593 l-3 593 -588 0 c-324 0 -590 -2 -593 -4z m617
-480 c24 -13 52 -30 62 -39 28 -25 57 -100 57 -146 0 -47 -27 -136 -41 -136
-5 0 -9 -6 -9 -12 -1 -13 -63 -58 -81 -58 -5 0 -9 -2 -9 -5 0 -4 81 -126 90
-135 10 -10 50 -69 50 -75 0 -3 -18 -5 -39 -5 -38 0 -41 3 -85 73 -25 39 -49
77 -54 83 -5 5 -14 19 -20 30 -9 17 -20 19 -116 16 l-106 -3 0 -100 0 -99 -35
0 c-19 0 -35 3 -36 8 -3 27 -3 624 0 627 2 2 77 3 166 1 146 -2 167 -5 206
-25z"/>
<path d="M611 1102 c-7 -2 -11 -49 -11 -149 l0 -145 123 4 c140 4 176 18 208
78 42 77 11 167 -68 199 -29 12 -225 22 -252 13z"/>
<path d="M1523 1301 c-6 -3 -9 -241 -9 -591 l1 -585 588 0 c324 0 591 4 594 8
4 7 7 1068 4 1158 -1 15 -51 17 -585 17 -321 0 -588 -3 -593 -7z m626 -713
c62 -123 116 -224 120 -226 4 -1 14 12 22 30 25 53 170 342 180 358 5 8 13 24
18 36 8 17 18 21 55 21 l46 0 -2 -316 c-3 -342 1 -317 -51 -312 -10 1 -12 56
-12 251 0 138 -3 250 -6 250 -4 0 -56 -98 -116 -217 -94 -188 -113 -218 -134
-220 -22 -3 -33 16 -134 216 -60 121 -112 218 -114 215 -2 -2 -5 -116 -5 -252
l-1 -247 -27 1 c-16 1 -31 2 -35 3 -6 1 -9 586 -4 622 1 3 20 6 44 7 l43 3
113 -223z"/>
</g>
</svg>
